<?xml version="1.0" encoding="UTF-8" standalone="no"?>
<svg width="142px" height="30px" viewBox="0 0 142 30" version="1.1" xmlns="http://www.w3.org/2000/svg" xmlns:xlink="http://www.w3.org/1999/xlink">
    <!-- Generator: Sketch 39.1 (31720) - http://www.bohemiancoding.com/sketch -->
    <title>Snapdeal Logo</title>
    <desc>Created with Sketch.</desc>
    <defs>
        <polygon id="path-1" points="0.000115745923 26.3908046 30.1258352 26.3908046 30.1258352 0.0871133006 0.000115745923 0.0871133006"></polygon>
    </defs>
    <g id="Page-1" stroke="none" stroke-width="1" fill="none" fill-rule="evenodd">
        <g id="Artboard" transform="translate(-384.000000, -420.000000)">
            <g id="Group" transform="translate(384.000000, 420.000000)">
                <g id="Snapdeal-Logo" transform="translate(1.000000, 1.000000)">
                    <g id="Page-1">
                        <g>
                            <g id="PDP-m&amp;t-changes">
                                <g id="Group-41">
                                    <g id="Page-1">
                                        <path d="M41.0904204,7.37886897 C38.0814894,7.37886897 36.2705859,8.84902989 36.2705859,11.2699034 C36.2705859,13.1436506 37.292807,14.4406621 40.5939875,15.5934897 L41.6745933,15.9684322 C43.7193617,16.6890299 44.3328901,17.2940874 44.3328901,18.3030529 C44.3328901,19.5714207 43.2229289,20.3496276 41.3533145,20.3496276 C39.8343344,20.3496276 38.6366331,19.8884322 37.4973164,18.8218575 C37.0299128,18.3606621 36.4167106,18.3606621 35.9493071,18.8218575 L35.9199516,18.850823 C35.5402881,19.2254437 35.5402881,19.9746851 35.9199516,20.3496276 C37.4682872,21.8194667 39.1624213,22.424846 41.3533145,22.424846 C44.6541689,22.424846 46.669908,20.8970759 46.669908,18.2740874 C46.669908,16.2278345 45.6473607,15.0746851 42.4632757,13.9505011 L41.4116992,13.5758805 C39.2501614,12.7976736 38.6072776,12.1922943 38.6072776,11.1836506 C38.6072776,10.1460414 39.5714402,9.45408736 41.0904204,9.45408736 C42.3465064,9.45408736 43.3396982,9.88663908 44.3912747,10.8090299 C44.8586783,11.2412598 45.501236,11.2122943 45.9686395,10.7510989 L45.997995,10.7224552 C46.3776585,10.3478345 46.3776585,9.59827126 45.9686395,9.25229425 C44.5373995,7.95528276 43.0768041,7.37886897 41.0904204,7.37886897" id="Fill-1" fill="#FFFFFF"></path>
                                        <path d="M72.5513136,16.1989011 L72.5513136,16.2565103 L72.5513136,16.5448782 C72.5513136,18.7353149 70.9739488,20.3493379 68.4324214,20.3493379 C66.4460377,20.3493379 65.2483364,19.4559126 65.2483364,17.8129241 C65.2483364,16.2278667 66.5337778,15.3054759 68.7537002,15.3054759 L72.5513136,15.3054759 L72.5513136,16.1989011 L72.5513136,16.1989011 Z M69.1336898,7.37890115 C67.3224602,7.37890115 65.6279998,7.86874023 63.9922504,9.51172874 C63.6125869,9.91531494 63.6125869,10.6935218 63.9922504,11.0681425 L64.050635,11.1260736 C64.4890094,11.5583034 65.131567,11.5583034 65.5696152,11.097108 C66.7673165,9.82874023 67.9359885,9.45411954 69.1336898,9.45411954 C71.2658722,9.45411954 72.5513136,10.6359126 72.5513136,12.5959126 L72.5513136,13.3165103 L68.7537002,13.3165103 C65.0731823,13.3165103 62.9116446,14.9594989 62.9116446,17.8129241 C62.9116446,20.4935218 64.9854422,22.4248782 67.9066331,22.4248782 C69.9807569,22.4248782 71.5874772,21.6177057 72.580669,20.3206943 L72.580669,20.9547172 C72.580669,21.531131 73.0771019,22.021292 73.6906302,22.021292 L73.7490149,22.021292 C74.3331878,22.021292 74.8299469,21.531131 74.8299469,20.9260736 L74.8299469,12.5959126 C74.8299469,9.33890115 72.6974384,7.37890115 69.1336898,7.37890115 L69.1336898,7.37890115 L69.1336898,7.37890115 Z" id="Fill-3" fill="#FFFFFF"></path>
                                        <path d="M131.354306,16.1989011 L131.354306,16.2565103 L131.354306,16.5448782 C131.354306,18.7353149 129.776941,20.3493379 127.235413,20.3493379 C125.24903,20.3493379 124.051328,19.4559126 124.051328,17.8129241 C124.051328,16.2278667 125.33677,15.3054759 127.556692,15.3054759 L131.354306,15.3054759 L131.354306,16.1989011 L131.354306,16.1989011 Z M127.936356,7.37890115 C124.869366,7.37890115 122.473964,9.16607356 122.473964,10.3475448 C122.473964,10.6359126 122.561704,10.9242805 122.766213,11.1260736 L122.824598,11.1836828 C123.029107,11.3854759 123.262646,11.4717287 123.554896,11.4717287 C124.051328,11.4717287 124.401963,11.097108 124.869366,10.6359126 C125.453539,10.0594989 126.388346,9.45411954 127.936356,9.45411954 C130.068864,9.45411954 131.354306,10.6359126 131.354306,12.5959126 L131.354306,13.3165103 L127.556692,13.3165103 C123.876174,13.3165103 121.714637,14.9594989 121.714637,17.8129241 C121.714637,20.4935218 123.788434,22.4248782 126.709625,22.4248782 C128.783749,22.4248782 130.390469,21.6177057 131.383661,20.3206943 L131.383661,20.9547172 C131.383661,21.531131 131.880094,22.021292 132.493622,22.021292 L132.552007,22.021292 C133.13618,22.021292 133.632939,21.531131 133.632939,20.9260736 L133.632939,12.5959126 C133.632939,9.33890115 131.50043,7.37890115 127.936356,7.37890115 L127.936356,7.37890115 L127.936356,7.37890115 Z" id="Fill-5" fill="#FFFFFF"></path>
                                        <path d="M102.551644,16.1412276 C102.259394,18.7928598 100.915894,20.3495954 98.462107,20.3495954 C95.6870411,20.3495954 94.3138596,18.3316644 94.3138596,14.9018253 C94.3138596,11.4716644 95.6870411,9.45405517 98.462107,9.45405517 C100.944924,9.45405517 102.28875,11.0684 102.551644,13.7776414 L102.551644,16.1412276 L102.551644,16.1412276 Z M104.830277,18.2454115 L104.830277,1.15285977 C104.830277,0.547802299 104.333518,0.0576413793 103.71999,0.0576413793 L103.661605,0.0576413793 C103.048403,0.0576413793 102.551644,0.547802299 102.551644,1.15285977 L102.551644,9.42541149 C101.529097,8.09943448 100.010117,7.37883678 97.994704,7.37883678 C94.1093501,7.37883678 91.9771678,10.1460092 91.9771678,14.9018253 C91.9771678,19.6576414 94.1093501,22.4248138 97.994704,22.4248138 C100.156241,22.4248138 101.762962,21.5889977 102.756153,20.0612276 C103.165172,21.2716644 104.129009,22.2230207 105.063816,22.2230207 C105.677344,22.2230207 106.203133,21.7907908 106.203133,21.156446 C106.203133,20.0036184 104.830277,20.176446 104.830277,18.2454115 L104.830277,18.2454115 L104.830277,18.2454115 Z" id="Fill-7" fill="#FFFFFF"></path>
                                        <path d="M83.6517411,20.3494989 C80.876675,20.3494989 79.5038197,18.3318897 79.5038197,15.017269 L79.5038197,14.7865103 C79.5038197,11.4718897 80.876675,9.45428046 83.6517411,9.45428046 C86.3684226,9.45428046 87.7996626,11.4718897 87.7996626,14.9017287 C87.7996626,18.3318897 86.3684226,20.3494989 83.6517411,20.3494989 M84.1191447,7.37874023 C82.1034056,7.37874023 80.5553962,8.12830345 79.5328489,9.48292414 L79.5328489,8.84890115 C79.5328489,8.27248736 79.0364161,7.78232644 78.451917,7.78232644 L78.3935323,7.78232644 C77.7803301,7.78232644 77.2835711,8.27248736 77.2835711,8.84890115 L77.2835711,26.6617287 C77.2835711,27.267108 77.7803301,27.757269 78.3935323,27.757269 L78.451917,27.757269 C79.0654453,27.757269 79.5622043,27.267108 79.5622043,26.6617287 L79.5622043,20.3494989 C80.5844255,21.7041195 82.1034056,22.4247172 84.1191447,22.4247172 C88.004172,22.4247172 90.1366805,19.6578667 90.1366805,14.9017287 C90.1366805,10.1459126 88.004172,7.37874023 84.1191447,7.37874023" id="Fill-9" fill="#FFFFFF"></path>
                                        <path d="M113.710489,9.45415172 C116.310401,9.45415172 117.624872,10.9819218 117.770996,13.6625195 L109.708366,13.6625195 C110.000616,11.0105655 111.315086,9.45415172 113.710489,9.45415172 L113.710489,9.45415172 L113.710489,9.45415172 Z M119.436101,19.1965425 C118.968698,18.7643126 118.325814,18.7063816 117.800026,19.1099678 C116.660709,19.9747494 115.638488,20.3493701 114.177892,20.3493701 C111.373471,20.3493701 109.854491,18.5911632 109.679337,15.6511632 L118.647093,15.6511632 C119.494486,15.6511632 120.108014,15.0457839 120.108014,14.2099678 C120.108014,9.9439908 118.03389,7.37893333 113.710489,7.37893333 C109.504183,7.37893333 107.313289,10.1747494 107.313289,14.9019218 C107.313289,19.6287724 109.679337,22.4249103 114.177892,22.4249103 C116.310401,22.4249103 117.800026,21.9061057 119.377717,20.6377379 C119.815765,20.2917609 119.844794,19.6001287 119.46513,19.225508 L119.436101,19.1965425 L119.436101,19.1965425 Z" id="Fill-11" fill="#FFFFFF"></path>
                                        <path d="M51.0515639,20.9259448 L51.0515639,13.8065425 C51.0515639,11.0969793 52.4244192,9.4539908 54.9949759,9.4539908 C57.4781186,9.4539908 58.5590506,10.837577 58.5590506,13.6047494 L58.5590506,20.9259448 C58.5590506,21.5313241 59.0554834,22.0211632 59.6690118,22.0211632 L59.7273965,22.0211632 C60.3409248,22.0211632 60.8373577,21.5313241 60.8373577,20.9259448 L60.8373577,13.5471402 C60.8373577,9.36773793 59.2016082,7.37877241 55.5210903,7.37877241 C53.5053512,7.37877241 51.9863711,8.12833563 51.0222085,9.48295632 L51.0222085,8.84893333 C51.0222085,8.27251954 50.5257756,7.78235862 49.9416027,7.78235862 L49.883218,7.78235862 C49.2696896,7.78235862 48.7729306,8.27251954 48.7729306,8.84893333 L48.7729306,20.9259448 C48.7729306,21.5313241 49.2696896,22.0211632 49.883218,22.0211632 L49.9416027,22.0211632 C50.5548049,22.0211632 51.0515639,21.5313241 51.0515639,20.9259448" id="Fill-13" fill="#FFFFFF"></path>
                                        <path d="M138.598768,22.2230207 C139.212296,22.2230207 139.738084,21.7907908 139.738084,21.156446 C139.738084,20.0036184 138.365229,20.176446 138.365229,18.2454115 L138.365229,1.15285977 C138.365229,0.547802299 137.86847,0.0576413793 137.254942,0.0576413793 L137.196557,0.0576413793 C136.583029,0.0576413793 136.086596,0.547802299 136.086596,1.15285977 L136.086596,18.8507908 C136.086596,20.5513885 137.342682,22.2230207 138.598768,22.2230207" id="Fill-15" fill="#FFFFFF"></path>
                                        <g id="Group-19" transform="translate(0.000000, 1.395172)">
                                            <g id="Fill-17-Clipped">
                                                <mask id="mask-2" fill="white">
                                                    <use xlink:href="#path-1"></use>
                                                </mask>
                                                <g id="path-1"></g>
                                                <path d="M6.30000023,25.6414023 C6.62127904,26.1891724 6.97191328,26.3909655 7.6144709,26.3909655 L19.5911579,26.3909655 C20.2340416,26.3909655 20.5843497,26.2178161 20.9933686,25.6990115 L30.0491909,14.1694483 C30.2533741,13.910046 30.0198354,13.4778161 29.6985566,13.4778161 L15.1803423,13.4778161 C14.5377846,13.4778161 14.1871504,13.276023 13.8658716,12.7285747 L6.56289437,0.27662069 C6.38774033,-0.0117471264 5.92033674,0.046183908 5.80324122,0.334229885 L0.165695062,13.7948276 C-0.0971990717,14.4002069 -0.0388143944,14.8037931 0.282464416,15.3512414 L6.30000023,25.6414023 L6.30000023,25.6414023 Z" id="Fill-17" fill="#FFFFFF" mask="url(#mask-2)"></path>
                                            </g>
                                        </g>
                                        <path d="M21.3731952,12.1635862 C21.694474,12.7113563 22.0451082,12.9131494 22.6876659,12.9131494 L29.6983935,12.9131494 C30.0490278,12.9131494 30.3119219,12.4805977 30.1367679,12.1635862 L23.447319,0.749563218 C23.1260402,0.201793103 22.775406,0 22.1328483,0 L8.75362445,0 C8.40331639,0 8.14042225,0.432229885 8.31557628,0.749563218 L11.7919109,6.68717241 C12.1131897,7.23462069 12.4634977,7.43641379 13.1063815,7.43641379 L18.6271583,7.43641379 L21.3731952,12.1635862 L21.3731952,12.1635862 Z" id="Fill-20" fill="#FFFFFF"></path>
                                    </g>
                                </g>
                            </g>
                        </g>
                    </g>
                </g>
            </g>
        </g>
    </g>
</svg>